<svg xmlns="http://www.w3.org/2000/svg" xmlns:xlink="http://www.w3.org/1999/xlink" viewBox="0 0 773.65 619.08"><defs><style>.cls-1{isolation:isolate;}.cls-2,.cls-3,.cls-4{opacity:0.5;mix-blend-mode:multiply;}.cls-2{fill:url(#linear-gradient);}.cls-3{fill:url(#linear-gradient-2);}.cls-4{fill:url(#linear-gradient-3);}.cls-5{fill:#fff;}</style><linearGradient id="linear-gradient" x1="719.35" y1="-54.43" x2="319.11" y2="743.92" gradientUnits="userSpaceOnUse"><stop offset="0.01" stop-color="#f7ca78"/><stop offset="0.2" stop-color="#f5c376"/><stop offset="0.49" stop-color="#f0b072"/><stop offset="0.83" stop-color="#e7916a"/><stop offset="0.99" stop-color="#e27f66"/></linearGradient><linearGradient id="linear-gradient-2" x1="735.07" y1="169.49" x2="364.49" y2="669.25" xlink:href="#linear-gradient"/><linearGradient id="linear-gradient-3" x1="700.33" y1="93.72" x2="475.86" y2="504.55" xlink:href="#linear-gradient"/></defs><title>Asset 4</title><g class="cls-1"><g id="Layer_2" data-name="Layer 2"><g id="BG"><path class="cls-2" d="M0,619.08H773.65V0s0,164-165.8,164C428.24,164,386,349.53,298,437.32,216.37,518.83,0,498.08,0,619.07Z"/><path class="cls-3" d="M48.92,619.08H773.65V193.66H618.34c-168.25,0-207.85,173.42-290.24,255.49C251.61,525.35,48.92,506,48.92,619.07Z"/><path class="cls-4" d="M60,619.08h713.7V373.76s-30.85-82.43-153-82.43c-167.07,0-204.69,133.6-285.82,196.83C259.55,546.87,60,531.93,60,619.08Z"/><path class="cls-5" d="M773.65,619.08V450.55s-29.32-99-145.38-99c-52.2,0-95.66,21.47-133.8,56.57-45.22,41.62-77.28,105.37-112,156.64-6,8.8-12.2,17.87-21.2,23.32-16.52,10-37.67,5.32-55.56-1.81-22.88-9.12-46.28-20.1-71.42-14.28-9.91,2.3-19.62,6.78-26.52,14.41-7.53,8.32-10.14,20.3-9,32.65Z"/></g></g></g></svg>