<svg xmlns="http://www.w3.org/2000/svg" xmlns:xlink="http://www.w3.org/1999/xlink" viewBox="0 0 963 697.38"><defs><style>.cls-1{fill:#e3e4e6;}.cls-2{fill:#6c63ff;opacity:0.1;isolation:isolate;}.cls-128,.cls-3,.cls-79{fill:#fff;}.cls-4{fill:#249680;}.cls-5{fill:url(#linear-gradient);}.cls-6{fill:url(#linear-gradient-2);}.cls-7{fill:url(#linear-gradient-3);}.cls-8{fill:url(#linear-gradient-4);}.cls-9{fill:url(#linear-gradient-5);}.cls-10,.cls-11,.cls-110,.cls-138,.cls-20,.cls-21,.cls-22,.cls-23,.cls-24,.cls-25,.cls-26,.cls-27,.cls-28,.cls-29,.cls-30,.cls-31,.cls-32,.cls-33,.cls-34,.cls-35,.cls-36,.cls-37,.cls-38,.cls-39,.cls-40,.cls-41,.cls-42,.cls-43,.cls-44,.cls-45,.cls-46,.cls-47,.cls-48,.cls-49,.cls-50,.cls-51,.cls-52,.cls-53,.cls-54,.cls-69,.cls-83,.cls-92{fill:none;stroke-miterlimit:10;}.cls-10,.cls-54{stroke:#fde772;}.cls-10,.cls-11,.cls-51,.cls-52,.cls-53,.cls-54{stroke-width:2px;}.cls-10,.cls-11,.cls-52{stroke-dasharray:6 5;}.cls-11,.cls-53{stroke:#fc8175;}.cls-12{fill:url(#linear-gradient-6);}.cls-13{fill:url(#linear-gradient-7);}.cls-14{fill:url(#linear-gradient-8);}.cls-15{fill:url(#linear-gradient-9);}.cls-16{fill:url(#linear-gradient-10);}.cls-17{fill:url(#linear-gradient-11);}.cls-18{fill:#e2c054;}.cls-19{fill:#d1944b;}.cls-20,.cls-21,.cls-22,.cls-23,.cls-24,.cls-25,.cls-26,.cls-27,.cls-28,.cls-29,.cls-30,.cls-31,.cls-32,.cls-33,.cls-34,.cls-35,.cls-36,.cls-37,.cls-38,.cls-39,.cls-40,.cls-41,.cls-42,.cls-43,.cls-44,.cls-45,.cls-46,.cls-47,.cls-48,.cls-49,.cls-50{stroke-width:0.5px;}.cls-20{stroke:url(#linear-gradient-12);}.cls-21{stroke:url(#linear-gradient-13);}.cls-22{stroke:url(#linear-gradient-14);}.cls-23{stroke:url(#linear-gradient-15);}.cls-24{stroke:url(#linear-gradient-16);}.cls-25{stroke:url(#linear-gradient-17);}.cls-26{stroke:url(#linear-gradient-18);}.cls-27{stroke:url(#linear-gradient-19);}.cls-28{stroke:url(#linear-gradient-20);}.cls-29{stroke:url(#linear-gradient-21);}.cls-30{stroke:url(#linear-gradient-22);}.cls-31{stroke:url(#linear-gradient-23);}.cls-32{stroke:url(#linear-gradient-24);}.cls-33{stroke:url(#linear-gradient-25);}.cls-34{stroke:url(#linear-gradient-26);}.cls-35{stroke:url(#linear-gradient-27);}.cls-36{stroke:url(#linear-gradient-28);}.cls-37{stroke:url(#linear-gradient-29);}.cls-38{stroke:url(#linear-gradient-30);}.cls-39{stroke:url(#linear-gradient-31);}.cls-40{stroke:url(#linear-gradient-32);}.cls-41{stroke:url(#linear-gradient-33);}.cls-42{stroke:url(#linear-gradient-34);}.cls-43{stroke:url(#linear-gradient-35);}.cls-44{stroke:url(#linear-gradient-36);}.cls-45{stroke:url(#linear-gradient-37);}.cls-46{stroke:url(#linear-gradient-38);}.cls-47{stroke:url(#linear-gradient-39);}.cls-48{stroke:url(#linear-gradient-40);}.cls-49{stroke:url(#linear-gradient-41);}.cls-50{stroke:url(#linear-gradient-42);}.cls-51,.cls-52{stroke:#75e2dc;}.cls-55{fill:url(#linear-gradient-43);}.cls-56{fill:url(#linear-gradient-44);}.cls-57{fill:url(#linear-gradient-45);}.cls-58{fill:url(#linear-gradient-46);}.cls-59{fill:#262626;opacity:0.13;}.cls-60{fill:url(#linear-gradient-47);}.cls-61{fill:url(#linear-gradient-48);}.cls-62{fill:#d3d3d3;}.cls-63{fill:#b9bec1;}.cls-64{fill:#8495a5;}.cls-65{fill:#4f5d66;}.cls-66{fill:#3f4b51;}.cls-67{fill:#f7e8bf;}.cls-68{fill:#748593;}.cls-69{stroke:#aaa;}.cls-70{fill:url(#linear-gradient-49);}.cls-71,.cls-89{fill:#373c3d;}.cls-71{opacity:0.22;}.cls-72{fill:url(#linear-gradient-50);}.cls-73{fill:url(#linear-gradient-51);}.cls-74{fill:#b7b7b7;}.cls-75{fill:#ebeded;}.cls-76,.cls-93{fill:#ce6b57;}.cls-76{opacity:0.17;}.cls-77{fill:#3f4142;}.cls-78{fill:url(#linear-gradient-52);}.cls-79{opacity:0.35;}.cls-80{fill:url(#linear-gradient-53);}.cls-81{fill:url(#linear-gradient-54);}.cls-82{fill:url(#linear-gradient-55);}.cls-83{stroke:#ce6b57;}.cls-84{fill:#313333;}.cls-85{fill:url(#linear-gradient-56);}.cls-86{fill:#4f5151;}.cls-87{fill:#495052;}.cls-88{fill:#434849;}.cls-90,.cls-91{opacity:0.4;}.cls-90{fill:url(#linear-gradient-57);}.cls-91{fill:url(#linear-gradient-58);}.cls-92{stroke:#42757c;}.cls-94{fill:url(#linear-gradient-59);}.cls-95{fill:url(#linear-gradient-60);}.cls-96{fill:url(#linear-gradient-61);}.cls-97{fill:#c95343;}.cls-98{fill:url(#linear-gradient-62);}.cls-99{fill:url(#linear-gradient-63);}.cls-100{fill:url(#linear-gradient-64);}.cls-101{fill:url(#linear-gradient-65);}.cls-102{fill:url(#linear-gradient-66);}.cls-103{fill:url(#linear-gradient-67);}.cls-104{fill:url(#linear-gradient-68);}.cls-105{fill:url(#linear-gradient-69);}.cls-106{fill:url(#linear-gradient-70);}.cls-107{fill:url(#linear-gradient-71);}.cls-108{fill:url(#linear-gradient-72);}.cls-109{fill:#8eaedd;}.cls-110{stroke:#fff;}.cls-111{fill:#6280a5;opacity:0.6;}.cls-112{fill:#96b8e2;}.cls-113{fill:url(#linear-gradient-73);}.cls-114{fill:#fcdbd2;}.cls-115{fill:#7391c6;}.cls-116{fill:#4e5d6b;}.cls-117{fill:#63707f;}.cls-118{fill:#fcc0aa;}.cls-119{fill:#4c4c4c;}.cls-120{fill:#efaa9e;}.cls-121{fill:#925454;}.cls-122{fill:#3f327a;}.cls-123{fill:#ffa938;}.cls-124{fill:#c66161;opacity:0.14;}.cls-125{fill:url(#linear-gradient-74);}.cls-126{fill:#fff792;}.cls-127{fill:url(#linear-gradient-75);}.cls-128{opacity:0.25;}.cls-129{fill:#ffed92;}.cls-130{fill:#57547f;}.cls-131{fill:#f98e35;}.cls-132{fill:#444;}.cls-133{fill:#783d8a;}.cls-134{fill:#1d99b3;}.cls-135{fill:#efc9bf;}.cls-136{fill:#ed9832;}.cls-137{fill:#f99795;}.cls-138{stroke:#efefef;stroke-width:5px;}.cls-139{fill:url(#linear-gradient-76);}.cls-140{fill:#80a4ce;}.cls-141{fill:#363432;}</style><linearGradient id="linear-gradient" x1="-1656.95" y1="-308.22" x2="-1624.23" y2="-421.04" gradientTransform="translate(2607.54 602.87) rotate(-8.35)" gradientUnits="userSpaceOnUse"><stop offset="0" stop-color="#22debd"/><stop offset="1" stop-color="#ffc359"/></linearGradient><linearGradient id="linear-gradient-2" x1="-1658.84" y1="-322.04" x2="-1626.69" y2="-355.04" xlink:href="#linear-gradient"/><linearGradient id="linear-gradient-3" x1="-1690.99" y1="-368.49" x2="-1685.07" y2="-432.8" gradientTransform="translate(2607.54 602.87) rotate(-8.35)" gradientUnits="userSpaceOnUse"><stop offset="0" stop-color="#22debd"/><stop offset="0.66" stop-color="#b3cc7b"/><stop offset="1" stop-color="#ffc359"/></linearGradient><linearGradient id="linear-gradient-4" x1="-1739.47" y1="-309.63" x2="-1706.75" y2="-422.46" xlink:href="#linear-gradient"/><linearGradient id="linear-gradient-5" x1="-1710.77" y1="-306.91" x2="-1672.69" y2="-341.61" xlink:href="#linear-gradient"/><linearGradient id="linear-gradient-6" x1="-15784.62" y1="610.13" x2="-15725.92" y2="432.02" gradientTransform="translate(15959.59)" xlink:href="#linear-gradient"/><linearGradient id="linear-gradient-7" x1="-15786.77" y1="548.89" x2="-15732.89" y2="548.89" gradientTransform="translate(15959.59)" gradientUnits="userSpaceOnUse"><stop offset="0" stop-color="#fff"/><stop offset="1" stop-color="#dceffe"/></linearGradient><linearGradient id="linear-gradient-8" x1="-15793.3" y1="594.26" x2="-15859.59" y2="431.83" gradientTransform="translate(15959.59)" gradientUnits="userSpaceOnUse"><stop offset="0" stop-color="#22bbbd"/><stop offset="0.93" stop-color="#efc560"/><stop offset="1" stop-color="#ffc359"/></linearGradient><linearGradient id="linear-gradient-9" x1="-15860.09" y1="554.31" x2="-15776.27" y2="554.31" xlink:href="#linear-gradient-7"/><linearGradient id="linear-gradient-10" x1="-15774.88" y1="640.08" x2="-15916.56" y2="517.62" gradientTransform="translate(15959.59)" gradientUnits="userSpaceOnUse"><stop offset="0" stop-color="#22debd"/><stop offset="0.39" stop-color="#78d396"/><stop offset="1" stop-color="#ffc359"/></linearGradient><linearGradient id="linear-gradient-11" x1="-15885.13" y1="592.88" x2="-15789.15" y2="592.88" xlink:href="#linear-gradient-7"/><linearGradient id="linear-gradient-12" x1="-112.06" y1="470.2" x2="-99.8" y2="470.2" gradientTransform="matrix(-1, 0, 0, 1, 116.22, 0)" xlink:href="#linear-gradient-7"/><linearGradient id="linear-gradient-13" x1="-95.24" y1="473.82" x2="-91.39" y2="473.82" gradientTransform="matrix(-1, 0, 0, 1, 116.22, 0)" xlink:href="#linear-gradient-7"/><linearGradient id="linear-gradient-14" x1="-101.35" y1="491.58" x2="-91.22" y2="491.58" gradientTransform="matrix(-1, 0, 0, 1, 116.22, 0)" xlink:href="#linear-gradient-7"/><linearGradient id="linear-gradient-15" x1="-91.65" y1="506.85" x2="-85.65" y2="506.85" gradientTransform="matrix(-1, 0, 0, 1, 116.22, 0)" xlink:href="#linear-gradient-7"/><linearGradient id="linear-gradient-16" x1="-100.8" y1="518.26" x2="-92.26" y2="518.26" gradientTransform="matrix(-1, 0, 0, 1, 116.22, 0)" xlink:href="#linear-gradient-7"/><linearGradient id="linear-gradient-17" x1="-90.54" y1="531.76" x2="-84.03" y2="531.76" gradientTransform="matrix(-1, 0, 0, 1, 116.22, 0)" xlink:href="#linear-gradient-7"/><linearGradient id="linear-gradient-18" x1="-97.02" y1="544.78" x2="-86.88" y2="544.78" gradientTransform="matrix(-1, 0, 0, 1, 116.22, 0)" xlink:href="#linear-gradient-7"/><linearGradient id="linear-gradient-19" x1="-80.12" y1="553.29" x2="-74.21" y2="553.29" gradientTransform="matrix(-1, 0, 0, 1, 116.22, 0)" xlink:href="#linear-gradient-7"/><linearGradient id="linear-gradient-20" x1="2.14" y1="477.38" x2="3.71" y2="477.38" gradientTransform="matrix(-1, 0, 0, 1, 116.22, 0)" xlink:href="#linear-gradient-7"/><linearGradient id="linear-gradient-21" x1="-2.05" y1="494.74" x2="8.54" y2="494.74" gradientTransform="matrix(-1, 0, 0, 1, 116.22, 0)" xlink:href="#linear-gradient-7"/><linearGradient id="linear-gradient-22" x1="-8.56" y1="503.2" x2="-4.01" y2="503.2" gradientTransform="matrix(-1, 0, 0, 1, 116.22, 0)" xlink:href="#linear-gradient-7"/><linearGradient id="linear-gradient-23" x1="-8.4" y1="524.42" x2="1.4" y2="524.42" gradientTransform="matrix(-1, 0, 0, 1, 116.22, 0)" xlink:href="#linear-gradient-7"/><linearGradient id="linear-gradient-24" x1="-15.85" y1="527.25" x2="-13.48" y2="527.25" gradientTransform="matrix(-1, 0, 0, 1, 116.22, 0)" xlink:href="#linear-gradient-7"/><linearGradient id="linear-gradient-25" x1="-20.8" y1="540.06" x2="-7.64" y2="540.06" gradientTransform="matrix(-1, 0, 0, 1, 116.22, 0)" xlink:href="#linear-gradient-7"/><linearGradient id="linear-gradient-26" x1="-27.22" y1="542.95" x2="-26.5" y2="542.95" gradientTransform="matrix(-1, 0, 0, 1, 116.22, 0)" xlink:href="#linear-gradient-7"/><linearGradient id="linear-gradient-27" x1="-34.48" y1="554.31" x2="-24.81" y2="554.31" gradientTransform="matrix(-1, 0, 0, 1, 116.22, 0)" xlink:href="#linear-gradient-7"/><linearGradient id="linear-gradient-28" x1="-41.57" y1="557.53" x2="-39.58" y2="557.53" gradientTransform="matrix(-1, 0, 0, 1, 116.22, 0)" xlink:href="#linear-gradient-7"/><linearGradient id="linear-gradient-29" x1="-47.99" y1="569.2" x2="-37.65" y2="569.2" gradientTransform="matrix(-1, 0, 0, 1, 116.22, 0)" xlink:href="#linear-gradient-7"/><linearGradient id="linear-gradient-30" x1="-56.14" y1="574.45" x2="-54.79" y2="574.45" gradientTransform="matrix(-1, 0, 0, 1, 116.22, 0)" xlink:href="#linear-gradient-7"/><linearGradient id="linear-gradient-31" x1="-60.47" y1="589.67" x2="-48.75" y2="589.67" gradientTransform="matrix(-1, 0, 0, 1, 116.22, 0)" xlink:href="#linear-gradient-7"/><linearGradient id="linear-gradient-32" x1="-67.92" y1="594.81" x2="-63.37" y2="594.81" gradientTransform="matrix(-1, 0, 0, 1, 116.22, 0)" xlink:href="#linear-gradient-7"/><linearGradient id="linear-gradient-33" x1="31.72" y1="542.53" x2="34.45" y2="542.53" gradientTransform="matrix(-1, 0, 0, 1, 116.22, 0)" xlink:href="#linear-gradient-7"/><linearGradient id="linear-gradient-34" x1="23.87" y1="555.86" x2="34.11" y2="555.86" gradientTransform="matrix(-1, 0, 0, 1, 116.22, 0)" xlink:href="#linear-gradient-7"/><linearGradient id="linear-gradient-35" x1="17.41" y1="561.97" x2="18.39" y2="561.97" gradientTransform="matrix(-1, 0, 0, 1, 116.22, 0)" xlink:href="#linear-gradient-7"/><linearGradient id="linear-gradient-36" x1="10.71" y1="576.03" x2="22.68" y2="576.03" gradientTransform="matrix(-1, 0, 0, 1, 116.22, 0)" xlink:href="#linear-gradient-7"/><linearGradient id="linear-gradient-37" x1="1.02" y1="578.12" x2="4.24" y2="578.12" gradientTransform="matrix(-1, 0, 0, 1, 116.22, 0)" xlink:href="#linear-gradient-7"/><linearGradient id="linear-gradient-38" x1="-10.31" y1="589.45" x2="0.79" y2="589.45" gradientTransform="matrix(-1, 0, 0, 1, 116.22, 0)" xlink:href="#linear-gradient-7"/><linearGradient id="linear-gradient-39" x1="-19.53" y1="590.9" x2="-16.35" y2="590.9" gradientTransform="matrix(-1, 0, 0, 1, 116.22, 0)" xlink:href="#linear-gradient-7"/><linearGradient id="linear-gradient-40" x1="-30.42" y1="600.46" x2="-17.52" y2="600.46" gradientTransform="matrix(-1, 0, 0, 1, 116.22, 0)" xlink:href="#linear-gradient-7"/><linearGradient id="linear-gradient-41" x1="-39.8" y1="603.52" x2="-36.42" y2="603.52" gradientTransform="matrix(-1, 0, 0, 1, 116.22, 0)" xlink:href="#linear-gradient-7"/><linearGradient id="linear-gradient-42" x1="-45.24" y1="616.05" x2="-32.42" y2="616.05" gradientTransform="matrix(-1, 0, 0, 1, 116.22, 0)" xlink:href="#linear-gradient-7"/><linearGradient id="linear-gradient-43" x1="95.02" y1="678.95" x2="148.03" y2="678.95" gradientUnits="userSpaceOnUse"><stop offset="0" stop-color="#1fb89a"/><stop offset="0" stop-color="#1fb89a"/><stop offset="0.18" stop-color="#3fb58d"/><stop offset="0.36" stop-color="#58b382"/><stop offset="0.55" stop-color="#69b27b"/><stop offset="0.76" stop-color="#74b176"/><stop offset="1" stop-color="#77b175"/></linearGradient><linearGradient id="linear-gradient-44" x1="658.3" y1="740.88" x2="790.19" y2="658.64" gradientTransform="matrix(1, 0, 0, 1, 0, 0)" xlink:href="#linear-gradient"/><linearGradient id="linear-gradient-45" x1="646.46" y1="562.75" x2="753.18" y2="354.46" gradientUnits="userSpaceOnUse"><stop offset="0.01" stop-color="#f1f2f2"/><stop offset="0.4" stop-color="#f0f0f2"/><stop offset="0.59" stop-color="#eae8f1"/><stop offset="0.74" stop-color="#e2dbef"/><stop offset="0.87" stop-color="#d5c9ec"/><stop offset="0.98" stop-color="#c6b1e9"/><stop offset="0.99" stop-color="#c3ade8"/></linearGradient><linearGradient id="linear-gradient-46" x1="626.21" y1="623.89" x2="732.28" y2="380.89" xlink:href="#linear-gradient-45"/><linearGradient id="linear-gradient-47" x1="699.73" y1="458.58" x2="796.16" y2="243.86" xlink:href="#linear-gradient-45"/><linearGradient id="linear-gradient-48" x1="770.25" y1="310.16" x2="739.39" y2="361.59" xlink:href="#linear-gradient-45"/><linearGradient id="linear-gradient-49" x1="-3904.52" y1="1466.89" x2="-3604.63" y2="1466.89" gradientTransform="matrix(0.67, 0.74, -0.74, 0.67, 3728.21, 2166.93)" xlink:href="#linear-gradient-45"/><linearGradient id="linear-gradient-50" x1="-3572.96" y1="1403.95" x2="-3570.45" y2="1517.98" gradientTransform="matrix(0.67, 0.74, -0.74, 0.67, 3728.21, 2166.93)" gradientUnits="userSpaceOnUse"><stop offset="0.01" stop-color="#f7ca78"/><stop offset="0.2" stop-color="#f5c376"/><stop offset="0.49" stop-color="#f0b072"/><stop offset="0.83" stop-color="#e7916a"/><stop offset="0.99" stop-color="#e27f66"/></linearGradient><linearGradient id="linear-gradient-51" x1="-866.63" y1="337.13" x2="-907.28" y2="453.54" gradientTransform="translate(1228.71 296.68) rotate(13.92)" xlink:href="#linear-gradient-50"/><linearGradient id="linear-gradient-52" x1="413.39" y1="462" x2="414.16" y2="582.21" gradientTransform="matrix(1, 0, 0, 1, 0, 0)" xlink:href="#linear-gradient-50"/><linearGradient id="linear-gradient-53" x1="90.26" y1="389.09" x2="239.89" y2="494.26" gradientTransform="matrix(1, 0, 0, 1, 0, 0)" xlink:href="#linear-gradient-50"/><linearGradient id="linear-gradient-54" x1="85.54" y1="580.67" x2="61.19" y2="648.26" gradientTransform="matrix(1, 0, 0, 1, 0, 0)" xlink:href="#linear-gradient-50"/><linearGradient id="linear-gradient-55" x1="11.74" y1="579.91" x2="110.29" y2="415.66" gradientTransform="matrix(1, 0, 0, 1, 0, 0)" xlink:href="#linear-gradient-50"/><linearGradient id="linear-gradient-56" x1="250.5" y1="418.04" x2="249.67" y2="613.27" gradientUnits="userSpaceOnUse"><stop offset="0.01" stop-color="#f7ca78"/><stop offset="0.21" stop-color="#f5c376"/><stop offset="0.49" stop-color="#f0b072"/><stop offset="0.83" stop-color="#e7916a"/><stop offset="1" stop-color="#e27f66"/></linearGradient><linearGradient id="linear-gradient-57" x1="284.1" y1="450.89" x2="282.98" y2="489.28" gradientUnits="userSpaceOnUse"><stop offset="0" stop-color="#fff" stop-opacity="0.4"/><stop offset="0.62" stop-color="#989c9d" stop-opacity="0.74"/><stop offset="1" stop-color="#495052"/></linearGradient><linearGradient id="linear-gradient-58" x1="240.71" y1="465.14" x2="229.92" y2="485.1" xlink:href="#linear-gradient-57"/><linearGradient id="linear-gradient-59" x1="239.81" y1="668.62" x2="240.13" y2="700.16" gradientTransform="matrix(1, 0, 0, 1, 0, 0)" xlink:href="#linear-gradient-50"/><linearGradient id="linear-gradient-60" x1="116.47" y1="632.77" x2="117.01" y2="687.38" gradientTransform="matrix(1, 0, 0, 1, 0, 0)" xlink:href="#linear-gradient-50"/><linearGradient id="linear-gradient-61" x1="787.82" y1="738.35" x2="819.17" y2="635.46" gradientUnits="userSpaceOnUse"><stop offset="0" stop-color="#22afbd"/><stop offset="1" stop-color="#ffc359"/></linearGradient><linearGradient id="linear-gradient-62" x1="599.46" y1="614.18" x2="597.91" y2="677" gradientUnits="userSpaceOnUse"><stop offset="0.01" stop-color="#fbb040"/><stop offset="0.17" stop-color="#faa938"/><stop offset="0.66" stop-color="#f89a25"/><stop offset="0.99" stop-color="#f7941e"/></linearGradient><linearGradient id="linear-gradient-63" x1="580.86" y1="576.61" x2="579.31" y2="639.44" xlink:href="#linear-gradient-62"/><linearGradient id="linear-gradient-64" x1="658.25" y1="576.61" x2="656.7" y2="639.44" xlink:href="#linear-gradient-62"/><linearGradient id="linear-gradient-65" x1="-1385.17" y1="614.33" x2="-1386.71" y2="676.73" gradientTransform="matrix(0.52, 0, 0, -1, 1259.29, 1275.34)" xlink:href="#linear-gradient-62"/><linearGradient id="linear-gradient-66" x1="-1916.25" y1="614.22" x2="-1917.8" y2="676.93" gradientTransform="matrix(0.52, 0, 0, -1, 1810.45, 1275.34)" xlink:href="#linear-gradient-62"/><linearGradient id="linear-gradient-67" x1="755.97" y1="614.18" x2="754.42" y2="677" xlink:href="#linear-gradient-62"/><linearGradient id="linear-gradient-68" x1="678.32" y1="614.18" x2="676.77" y2="677" xlink:href="#linear-gradient-62"/><linearGradient id="linear-gradient-69" x1="642.05" y1="653.56" x2="640.5" y2="716.39" xlink:href="#linear-gradient-62"/><linearGradient id="linear-gradient-70" x1="798.55" y1="653.56" x2="797" y2="716.39" xlink:href="#linear-gradient-62"/><linearGradient id="linear-gradient-71" x1="562.45" y1="653.56" x2="560.9" y2="716.39" xlink:href="#linear-gradient-62"/><linearGradient id="linear-gradient-72" x1="720.9" y1="653.56" x2="719.35" y2="716.39" xlink:href="#linear-gradient-62"/><linearGradient id="linear-gradient-73" x1="729.27" y1="743.01" x2="861.16" y2="660.76" gradientTransform="matrix(1, 0, 0, 1, 0, 0)" xlink:href="#linear-gradient"/><linearGradient id="linear-gradient-74" x1="570.84" y1="685.38" x2="634.24" y2="685.38" xlink:href="#linear-gradient-43"/><linearGradient id="linear-gradient-75" x1="666.04" y1="590.27" x2="662.19" y2="746.48" gradientUnits="userSpaceOnUse"><stop offset="0.01" stop-color="#f7941e"/><stop offset="0.19" stop-color="#f68d20"/><stop offset="0.46" stop-color="#f57a25"/><stop offset="0.77" stop-color="#f25b2e"/><stop offset="0.99" stop-color="#ef4136"/></linearGradient><linearGradient id="linear-gradient-76" x1="-1333.41" y1="538.25" x2="-1330.51" y2="605.75" gradientTransform="matrix(-1, 0, 0, 1, -956.32, 0)" xlink:href="#linear-gradient-50"/></defs><title>Asset 1</title><g id="Layer_2" data-name="Layer 2"><g id="MAIN_OBJECTS" data-name="MAIN OBJECTS"><path class="cls-1" d="M882.94,697.38H59.59a10.64,10.64,0,0,1-10.64-10.64h0A10.64,10.64,0,0,1,59.59,676.1H882.94a10.64,10.64,0,0,1,10.64,10.64h0A10.64,10.64,0,0,1,882.94,697.38Z"/><polygon class="cls-2" points="484.28 339.82 484.28 358.14 472.71 358.14 472.71 679.25 340.24 679.25 340.24 558.47 185.34 558.47 185.34 678.35 49.38 678.35 49.38 358.14 41.35 358.14 41.35 339.5 164.17 339.5 164.17 267.82 148.03 267.82 148.03 242.11 217.11 242.11 217.11 154.68 305.82 154.68 305.82 242.11 374.89 242.11 374.89 267.82 358.74 267.82 358.74 339.82 484.28 339.82"/><rect class="cls-3" x="417.42" y="371.32" width="37.29" height="37.29"/><rect class="cls-3" x="362.77" y="371.32" width="37.29" height="37.29"/><rect class="cls-3" x="417.42" y="422.11" width="37.29" height="37.29"/><rect class="cls-3" x="362.77" y="422.11" width="37.29" height="37.29"/><rect class="cls-3" x="417.42" y="472.25" width="37.29" height="37.29"/><rect class="cls-3" x="362.77" y="472.25" width="37.29" height="37.29"/><rect class="cls-3" x="112.38" y="371.32" width="37.29" height="37.29"/><rect class="cls-3" x="57.74" y="371.32" width="37.29" height="37.29"/><rect class="cls-3" x="112.38" y="422.11" width="37.29" height="37.29"/><rect class="cls-3" x="57.74" y="422.11" width="37.29" height="37.29"/><rect class="cls-3" x="112.38" y="472.25" width="37.29" height="37.29"/><rect class="cls-3" x="57.74" y="472.25" width="37.29" height="37.29"/><rect class="cls-3" x="254.42" y="173" width="14.07" height="51.11" transform="translate(460.02 -62.9) rotate(90)"/><rect class="cls-3" x="254.42" y="173" width="14.07" height="51.11" transform="translate(522.92 397.11) rotate(180)"/><rect class="cls-3" x="188.5" y="289.68" width="37.29" height="37.29"/><rect class="cls-3" x="297.14" y="289.68" width="37.29" height="37.29"/><rect class="cls-3" x="242.5" y="289.68" width="37.29" height="37.29"/><rect class="cls-3" x="188.5" y="343.68" width="37.29" height="37.29"/><rect class="cls-3" x="297.14" y="343.68" width="37.29" height="37.29"/><rect class="cls-3" x="242.5" y="343.68" width="37.29" height="37.29"/><rect class="cls-3" x="188.5" y="394.79" width="37.29" height="37.29"/><rect class="cls-3" x="297.14" y="394.79" width="37.29" height="37.29"/><rect class="cls-3" x="242.5" y="394.79" width="37.29" height="37.29"/><rect class="cls-3" x="188.5" y="446.86" width="37.29" height="37.29"/><rect class="cls-3" x="297.14" y="446.86" width="37.29" height="37.29"/><rect class="cls-3" x="242.5" y="446.86" width="37.29" height="37.29"/><path class="cls-4" d="M805,644.45l-1.75-.14c0-.28,2.35-28.53,17.13-64.63,13.64-33.32,41-80.38,93.79-115.32l1,1.46c-52.41,34.68-79.56,81.39-93.11,114.46C807.3,616.15,805,644.17,805,644.45Z"/><path class="cls-5" d="M909.32,457.51c.71,15.31,25.81,32.13,53.68-22.7C963,434.81,908.53,440.52,909.32,457.51Z"/><path class="cls-4" d="M919.23,502.32c-21.21-3.59-51.27,3.55-51.57,3.62l-.41-1.71c.3-.07,30.71-7.3,52.27-3.64Z"/><path class="cls-4" d="M882.44,491.8l-1.73-.28c0-.23,3.71-23.43-.24-39.28l1.7-.42C886.21,468,882.6,490.83,882.44,491.8Z"/><path class="cls-4" d="M855,522l-1.73-.28c0-.23,3.71-23.43-.24-39.28l1.7-.42C858.81,498.26,855.2,521.08,855,522Z"/><path class="cls-4" d="M843.51,539.16l-.88-1.52c.84-.49,20.85-12,37.44-14l.21,1.74C864.06,527.33,843.72,539,843.51,539.16Z"/><path class="cls-6" d="M916.13,496.45c-6,9.46,1.87,30.14,41.72,9.1C957.85,505.54,922.84,485.95,916.13,496.45Z"/><path class="cls-7" d="M885.32,454.2c-6.83,5.14-23,.33-9.32-31.15C876,423.05,892.9,448.5,885.32,454.2Z"/><path class="cls-8" d="M857.92,484.45c-6.83,5.14-23,.33-9.32-31.15C848.6,453.3,865.5,478.75,857.92,484.45Z"/><path class="cls-9" d="M876.72,521.52c-2.36,8.22,7.91,21.59,32.42-2.42C909.14,519.1,879.33,512.4,876.72,521.52Z"/><path class="cls-10" d="M650.27,549.6c135.78,96.05,191.51-186.35,159-245.26-36.72-66.58,18.34-112.82,72.19-96.31"/><path class="cls-11" d="M243.27,457.27C187.58,533,90,491,103.36,424c16.82-84.5-29.57-78.68-59.67-106.69"/><path class="cls-12" d="M228.56,516.9c2.94,10.33,4.37,21.6-7.42,32.65-22.24,20.85-3.17,57.66-23.84,68.86-5.45,3-9.62,3.12-12.85,1.59h0c-9-4.27-10.75-21.7-12.92-28.36a75,75,0,0,1-2.7-34A56.62,56.62,0,0,1,177.65,535c17.33-25.77,23.81-34,16.34-55.68a28.58,28.58,0,0,1-1.25-11.42l10.6.4-9.85-5.68c4.19-20.12,23-40.71,40.47-25.8,22.62,19.29-2,41.13-8.68,55.69-2.86,6.23,0,13.75,2.54,22l-3.63-.91,4.36,3.36Z"/><path class="cls-13" d="M178.84,642.83a1.08,1.08,0,0,1-1.38-.68,87.84,87.84,0,0,1-4.06-38c1.36-11.23,5.07-21.48,10.46-28.87,9.63-13.22,25.75-35.34,23.61-57.9q-.17-1.84-.35-3.57c-2-20.25-3-30.51,17.62-58.49a1.08,1.08,0,0,1,1.52-.23h0a1.08,1.08,0,0,1,.23,1.51c-20.13,27.3-19.21,36.68-17.21,57q.17,1.74.35,3.58c2.22,23.38-14.2,45.92-24,59.38-9.51,13.05-15,38.09-6.1,64.9a1.08,1.08,0,0,1-.67,1.37Z"/><path class="cls-14" d="M201,608c-1.35,8-8.43,11.63-16.5,12h0a33.67,33.67,0,0,1-7.52-.5c-7.29-1.29-14.22-4.82-17.54-9.79-3.21-4.81-4.54-12-6.2-19.3-2.58-11.34-5.95-22.87-18.43-25.77-19-4.43-30.53-20.17-33.91-43.66l11-2.13-11.32-.52q-.16-1.41-.29-2.86C97.93,488.94,72.76,478,83.8,459.35c9.09-15.39,35.33-7.46,44.33,10.89l-6,4.93,7.26-2.12a29.49,29.49,0,0,1,1.85,10.29c0,27,13.47,43.26,23.5,62.61,2.74,5.28,8,8.64,14.14,11.74C185.07,566,207,572.31,201,608Z"/><path class="cls-15" d="M180.11,639.58h0a1.08,1.08,0,0,1-.85-1.27c8.79-46.09-15.11-68.94-34.34-87.32-6.46-6.17-12.55-12-16.76-18.06-7.22-10.4-8.93-21-10.44-30.45-2-12.66-3.8-23.63-17.67-31.43a1.08,1.08,0,0,1-.43-1.45h0a1.08,1.08,0,0,1,1.48-.44c14.78,8.32,16.71,20.3,18.75,33,1.55,9.62,3.14,19.56,10.08,29.55,4.08,5.88,10.11,11.64,16.48,17.73,19.61,18.75,44,42,35,89.3A1.08,1.08,0,0,1,180.11,639.58Z"/><path class="cls-16" d="M176.93,619.51c-1.31,10.81-20.82,14.18-28.73,7.95-8.54-6.73-12.06-27.26-27.49-25.94-11.81,1-21.77-4.5-29.23-15.23l5.6-4.86-6.54,3.46a64.53,64.53,0,0,1-5.2-9.91c-5.54-13.07-17.61-17.67-22.52-25.14l9.66-1.07L60.89,545.2a14.07,14.07,0,0,1,.18-5.75c3.47-15.58,32.46-12.88,38.62,6,5.58,17.1,16.86,25.54,27.43,35.35l-1.51,3.38,2.65-2.32q1.07,1,2.12,2c5.18,5.1,14.1,4.89,22.81,6.51,10.52,1.95,20.74,6.55,23.69,26.36A10.12,10.12,0,0,1,176.93,619.51Z"/><path class="cls-17" d="M169.49,643.63a1.08,1.08,0,0,1-1.2-.93c-4.41-33.88-26.18-44.36-43.71-52.79-5.93-2.85-11.54-5.55-15.89-8.85-7.47-5.67-11.11-12.76-14.32-19-4.24-8.26-7.91-15.43-19-17.76a1.08,1.08,0,0,1-.85-1.25h0a1.08,1.08,0,0,1,1.28-.87C87.91,544.69,92,552.64,96.3,561c3.26,6.35,6.62,12.91,13.7,18.29,4.17,3.17,9.68,5.82,15.52,8.63,18,8.66,40.36,19.42,44.92,54.45a1.08,1.08,0,0,1-.95,1.22Z"/><path class="cls-18" d="M153.92,632.79h49.43a5.69,5.69,0,0,1,5.69,5.69v17.44a30.4,30.4,0,0,1-30.4,30.4h0a30.4,30.4,0,0,1-30.4-30.4V638.48a5.69,5.69,0,0,1,5.69-5.69Z"/><path class="cls-19" d="M209,651.09v4.82a30.4,30.4,0,0,1-60.81,0V638.48a5.59,5.59,0,0,1,.1-1v11.2A30.4,30.4,0,0,0,209,651.09Z"/><line class="cls-20" x1="228.25" y1="469.56" x2="216.04" y2="470.85"/><line class="cls-21" x1="211.22" y1="479.53" x2="207.84" y2="468.11"/><line class="cls-22" x1="207.52" y1="493.35" x2="217.49" y2="489.81"/><line class="cls-23" x1="207.68" y1="510.06" x2="202.06" y2="503.63"/><line class="cls-24" x1="216.84" y1="514.24" x2="208.65" y2="522.28"/><line class="cls-25" x1="206.56" y1="535.94" x2="200.45" y2="527.58"/><line class="cls-26" x1="203.18" y1="546.7" x2="213.15" y2="542.85"/><line class="cls-27" x1="196.11" y1="558.6" x2="190.65" y2="547.99"/><line class="cls-28" x1="112.75" y1="471.81" x2="113.83" y2="482.95"/><line class="cls-29" x1="118.11" y1="498.6" x2="107.83" y2="490.88"/><line class="cls-30" x1="120.47" y1="510.38" x2="124.54" y2="496.03"/><line class="cls-31" x1="124.54" y1="526.03" x2="114.9" y2="522.81"/><line class="cls-32" x1="129.94" y1="531.69" x2="131.83" y2="522.81"/><line class="cls-33" x1="136.97" y1="541.24" x2="123.9" y2="538.88"/><line class="cls-34" x1="142.97" y1="547.45" x2="143.18" y2="538.45"/><line class="cls-35" x1="150.68" y1="554.53" x2="141.04" y2="554.1"/><line class="cls-36" x1="157.54" y1="561.38" x2="156.04" y2="553.67"/><line class="cls-37" x1="164.18" y1="569.74" x2="153.9" y2="568.67"/><line class="cls-38" x1="171.25" y1="579.17" x2="172.11" y2="569.74"/><line class="cls-39" x1="176.61" y1="591.38" x2="165.04" y2="587.95"/><line class="cls-40" x1="179.83" y1="600.38" x2="183.9" y2="589.24"/><line class="cls-41" x1="84.25" y1="547.03" x2="82" y2="538.03"/><line class="cls-42" x1="92.29" y1="556.99" x2="82.16" y2="554.74"/><line class="cls-43" x1="98.56" y1="567.76" x2="98.08" y2="556.19"/><line class="cls-44" x1="105.47" y1="576.92" x2="93.58" y2="575.15"/><line class="cls-45" x1="114.95" y1="583.19" x2="112.22" y2="573.06"/><line class="cls-46" x1="126.52" y1="589.29" x2="115.43" y2="589.61"/><line class="cls-47" x1="135.52" y1="593.79" x2="132.79" y2="588.01"/><line class="cls-48" x1="146.61" y1="601.03" x2="133.75" y2="599.9"/><line class="cls-49" x1="155.77" y1="609.86" x2="152.88" y2="597.17"/><line class="cls-50" x1="161.4" y1="617.74" x2="148.7" y2="614.36"/><circle class="cls-51" cx="312.16" cy="19" r="18" transform="translate(124.67 269.31) rotate(-56.65)"/><path class="cls-52" d="M426.08,295C338.4,280.4,390,207.53,349.53,179.64c-66.48-45.8-48-90.89-35.3-143.63"/><circle class="cls-53" cx="43.45" cy="300.76" r="18" transform="translate(-260.3 291.88) rotate(-80.1)"/><circle class="cls-54" cx="895.61" cy="197.27" r="18" transform="translate(-21.36 211.4) rotate(-13.3)"/><path class="cls-55" d="M97,687.89c-7-9.58,6-14.38,11.5-9.2s13.23-11.89,22.51-8.13c10,4,6.24,12.54,6.24,12.54s8.82-1.82,10.73,4.79Z"/><path class="cls-56" d="M809.29,692.66l-130.4-.74c3-6.54,10.25-14.36,14.57-18.4l5.43,6.05L697,670.83A56,56,0,0,1,718.12,663l2.75,7.44-.43-7.77a67.87,67.87,0,0,1,9.52-.54l.55,8.06,4.78-7.73.66.08a42.33,42.33,0,0,1,17.46,6.07l-1.65,6.77,5.37-3.91a23.39,23.39,0,0,1,7.47,13.3,19,19,0,0,1,6.75-6.54l2.39,4.31-.69-5.19a21.17,21.17,0,0,1,7.83-1.88l1,5.6,1.67-5.59a29.11,29.11,0,0,1,4.75.65,36.07,36.07,0,0,1,4.91,1.43l-.71,4.25,1.67-3.88a29.6,29.6,0,0,1,6.6,3.72L797.44,688l5.11-4.89A23.6,23.6,0,0,1,809.29,692.66Z"/><path class="cls-57" d="M719.64,359.52,619.4,573a23.49,23.49,0,1,0,42.52,20L762.16,379.49ZM638.19,588.21a8.37,8.37,0,1,1,11.13-4A8.36,8.36,0,0,1,638.19,588.21Z"/><path class="cls-58" d="M723.25,369.51,626.19,576.18a16,16,0,1,0,28.93,13.58l97.06-206.67Zm-85.05,218.7a8.37,8.37,0,1,1,11.13-4A8.36,8.36,0,0,1,638.19,588.21Z"/><path class="cls-59" d="M762.16,379.49l-12.22,25.58a55.49,55.49,0,0,1-25.46-5.27c-7-3.27-7.39-19.15-12.22-24.54l7.39-15.74Z"/><path class="cls-60" d="M808,353.4a55.72,55.72,0,1,1-55.49-79.18l-23,49.07,18.37,27.14,32.62-3.19,23-49.07A55.69,55.69,0,0,1,808,353.4Z"/><polygon class="cls-61" points="780.49 347.25 779.12 350.16 746.5 353.35 728.13 326.21 729.5 323.3 747.87 350.44 780.49 347.25"/><polygon class="cls-62" points="250.07 302.18 250.07 335.38 328.15 291.32 581.29 291.32 659.32 335.38 659.32 302.22 581.29 230.71 328.15 230.71 250.07 302.18"/><rect class="cls-63" x="235.08" y="505.06" width="439.25" height="181.62"/><rect class="cls-64" x="292.36" y="537.88" width="324.68" height="148.81"/><rect class="cls-65" x="306.81" y="537.88" width="295.79" height="148.81"/><rect class="cls-66" x="352.65" y="584" width="204.11" height="102.68"/><path class="cls-64" d="M453.52,93.25,235.08,295.62V686.68H674.32V295.62Zm205.8,578.43H250.07V302.18l203.5-188.53L659.32,302.22Z"/><rect class="cls-62" x="250.07" y="335.39" width="409.26" height="169.68"/><polygon class="cls-67" points="659.33 505.06 250.08 505.06 265.08 480.12 644.33 480.12 659.33 505.06"/><rect class="cls-63" x="265.08" y="335.39" width="379.89" height="144.73"/><rect class="cls-68" x="447.32" y="335.39" width="14.76" height="169.68"/><rect class="cls-65" x="364.51" y="353.33" width="59.38" height="126.78"/><polygon class="cls-63" points="581.29 230.71 453.58 113.65 328.15 230.71 328.15 291.32 581.29 291.32 581.29 230.71"/><rect class="cls-65" x="420.41" y="204.18" width="68.57" height="100.35"/><polygon class="cls-67" points="659.32 335.38 250.11 335.38 328.15 291.32 581.29 291.32 659.32 335.38"/><rect class="cls-68" x="235.08" y="505.25" width="439.25" height="15.08"/><rect class="cls-68" x="235.08" y="328.6" width="439.25" height="15.08"/><path class="cls-69" d="M641.19,550.69"/><path class="cls-70" d="M253.33,447.46,57.67,230.62a7.81,7.81,0,0,0-11-.57L28.76,246.19l166.8,253.4Z"/><path class="cls-71" d="M222.48,437.3c-25.51,21.24-53.55,21.9-53.55,21.9l26.77,40.67,9.22-8.28,19.69-36.06Z"/><path class="cls-72" d="M305.54,520.66a4,4,0,0,0,5.67.29l2.61-2.36a4,4,0,0,0,.29-5.67l-78.74-87.27-23.57,21.26a10.39,10.39,0,0,0-3.42,7.39l-.53,17.26a10.39,10.39,0,0,1-3.42,7.38,10.38,10.38,0,0,0-3.3,9.32l5.69,36.22,42.4,47a4,4,0,0,0,5.68.29l3.36-3a4,4,0,0,0,.29-5.67,4,4,0,0,1,.29-5.68l41-37A4,4,0,0,1,305.54,520.66Zm-42.29-41.8a15.06,15.06,0,0,1,6.1,20.42l-13.84,25.64A15.07,15.07,0,0,1,229,510.6L242.83,485A15.07,15.07,0,0,1,263.25,478.86Z"/><path class="cls-73" d="M254.76,564.49a7.94,7.94,0,0,1,1.46-10l41-37a7.94,7.94,0,0,1,10.1-.43,2,2,0,0,0,2.63-2.87l-73.65-81.62a1.85,1.85,0,0,0-2.6-.13l-19.3,17.41a6.5,6.5,0,0,0-2.13,4.61l-.52,16.87A15.73,15.73,0,0,1,206.87,482a6.45,6.45,0,0,0-1.87,5.64l5.43,34.53a1.84,1.84,0,0,0,.45.95l40,44.35a2,2,0,0,0,2.76.14l.75-.67A2,2,0,0,0,254.76,564.49ZM235.1,531A15.07,15.07,0,0,1,229,510.6L242.83,485a15.07,15.07,0,1,1,26.52,14.31l-13.84,25.64A15.07,15.07,0,0,1,235.1,531Z"/><polygon class="cls-74" points="28.9 246.47 26.8 250.39 30.96 249.6 28.9 246.47"/><polygon class="cls-74" points="30.96 249.6 28.86 253.52 33.02 252.72 30.96 249.6"/><polygon class="cls-74" points="33.02 252.72 30.92 256.65 35.08 255.85 33.02 252.72"/><polygon class="cls-74" points="35.08 255.85 32.98 259.77 37.14 258.98 35.08 255.85"/><polygon class="cls-74" points="37.14 258.98 35.04 262.9 39.2 262.11 37.14 258.98"/><polygon class="cls-74" points="39.2 262.11 37.1 266.03 41.25 265.24 39.2 262.11"/><polygon class="cls-74" points="41.25 265.24 39.16 269.16 43.31 268.37 41.25 265.24"/><polygon class="cls-74" points="43.31 268.37 41.22 272.29 45.37 271.49 43.31 268.37"/><polygon class="cls-74" points="45.37 271.49 43.27 275.42 47.43 274.62 45.37 271.49"/><polygon class="cls-74" points="47.43 274.62 45.33 278.54 49.49 277.75 47.43 274.62"/><polygon class="cls-74" points="49.49 277.75 47.39 281.67 51.55 280.88 49.49 277.75"/><polygon class="cls-74" points="51.55 280.88 49.45 284.8 53.61 284.01 51.55 280.88"/><polygon class="cls-74" points="53.61 284.01 51.51 287.93 55.67 287.14 53.61 284.01"/><polygon class="cls-74" points="55.67 287.14 53.57 291.06 57.73 290.26 55.67 287.14"/><polygon class="cls-74" points="57.73 290.26 55.63 294.19 59.79 293.39 57.73 290.26"/><polygon class="cls-74" points="59.79 293.39 57.69 297.31 61.85 296.52 59.79 293.39"/><polygon class="cls-74" points="61.85 296.52 59.75 300.44 63.91 299.65 61.85 296.52"/><polygon class="cls-74" points="63.91 299.65 61.81 303.57 65.97 302.78 63.91 299.65"/><polygon class="cls-74" points="65.97 302.78 63.87 306.7 68.03 305.91 65.97 302.78"/><polygon class="cls-74" points="68.03 305.91 65.93 309.83 70.08 309.03 68.03 305.91"/><polygon class="cls-74" points="70.08 309.03 67.99 312.96 72.14 312.16 70.08 309.03"/><polygon class="cls-74" points="72.14 312.16 70.05 316.08 74.2 315.29 72.14 312.16"/><polygon class="cls-74" points="74.2 315.29 72.11 319.21 76.26 318.42 74.2 315.29"/><polygon class="cls-74" points="76.26 318.42 74.16 322.34 78.32 321.55 76.26 318.42"/><polygon class="cls-74" points="78.32 321.55 76.22 325.47 80.38 324.68 78.32 321.55"/><polygon class="cls-74" points="80.38 324.68 78.28 328.6 82.44 327.8 80.38 324.68"/><polygon class="cls-74" points="82.44 327.8 80.34 331.73 84.5 330.93 82.44 327.8"/><polygon class="cls-74" points="84.5 330.93 82.4 334.85 86.56 334.06 84.5 330.93"/><polygon class="cls-74" points="86.56 334.06 84.46 337.98 88.62 337.19 86.56 334.06"/><polygon class="cls-74" points="88.62 337.19 86.52 341.11 90.68 340.32 88.62 337.19"/><polygon class="cls-74" points="90.68 340.32 88.58 344.24 92.74 343.45 90.68 340.32"/><polygon class="cls-74" points="92.74 343.45 90.64 347.37 94.8 346.57 92.74 343.45"/><polygon class="cls-74" points="94.8 346.57 92.7 350.5 96.86 349.7 94.8 346.57"/><polygon class="cls-74" points="96.86 349.7 94.76 353.62 98.92 352.83 96.86 349.7"/><polygon class="cls-74" points="98.92 352.83 96.82 356.75 100.97 355.96 98.92 352.83"/><polygon class="cls-74" points="100.97 355.96 98.88 359.88 103.03 359.09 100.97 355.96"/><polygon class="cls-74" points="103.03 359.09 100.94 363.01 105.09 362.22 103.03 359.09"/><polygon class="cls-74" points="105.09 362.22 102.99 366.14 107.15 365.34 105.09 362.22"/><polygon class="cls-74" points="107.15 365.34 105.05 369.27 109.21 368.47 107.15 365.34"/><polygon class="cls-74" points="109.21 368.47 107.11 372.39 111.27 371.6 109.21 368.47"/><polygon class="cls-74" points="111.27 371.6 109.17 375.52 113.33 374.73 111.27 371.6"/><polygon class="cls-74" points="113.33 374.73 111.23 378.65 115.39 377.86 113.33 374.73"/><polygon class="cls-74" points="115.39 377.86 113.29 381.78 117.45 380.99 115.39 377.86"/><polygon class="cls-74" points="117.45 380.99 115.35 384.91 119.51 384.11 117.45 380.99"/><polygon class="cls-74" points="119.51 384.11 117.41 388.04 121.57 387.24 119.51 384.11"/><polygon class="cls-74" points="121.57 387.24 119.47 391.17 123.63 390.37 121.57 387.24"/><polygon class="cls-74" points="123.63 390.37 121.53 394.29 125.69 393.5 123.63 390.37"/><polygon class="cls-74" points="125.69 393.5 123.59 397.42 127.75 396.63 125.69 393.5"/><polygon class="cls-74" points="127.75 396.63 125.65 400.55 129.8 399.76 127.75 396.63"/><polygon class="cls-74" points="129.8 399.76 127.71 403.68 131.86 402.88 129.8 399.76"/><polygon class="cls-74" points="131.86 402.88 129.76 406.81 133.92 406.01 131.86 402.88"/><polygon class="cls-74" points="133.92 406.01 131.82 409.94 135.98 409.14 133.92 406.01"/><polygon class="cls-74" points="135.98 409.14 133.88 413.06 138.04 412.27 135.98 409.14"/><polygon class="cls-74" points="138.04 412.27 135.94 416.19 140.1 415.4 138.04 412.27"/><polygon class="cls-74" points="140.1 415.4 138 419.32 142.16 418.53 140.1 415.4"/><polygon class="cls-74" points="142.16 418.53 140.06 422.45 144.22 421.65 142.16 418.53"/><polygon class="cls-74" points="144.22 421.65 142.12 425.58 146.28 424.78 144.22 421.65"/><polygon class="cls-74" points="146.28 424.78 144.18 428.7 148.34 427.91 146.28 424.78"/><polygon class="cls-74" points="148.34 427.91 146.24 431.83 150.4 431.04 148.34 427.91"/><polygon class="cls-74" points="150.4 431.04 148.3 434.96 152.46 434.17 150.4 431.04"/><polygon class="cls-74" points="152.46 434.17 150.36 438.09 154.52 437.3 152.46 434.17"/><polygon class="cls-74" points="154.52 437.3 152.42 441.22 156.57 440.42 154.52 437.3"/><polygon class="cls-74" points="156.57 440.42 154.48 444.35 158.63 443.55 156.57 440.42"/><polygon class="cls-74" points="158.63 443.55 156.54 447.48 160.69 446.68 158.63 443.55"/><polygon class="cls-74" points="160.69 446.68 158.59 450.6 162.75 449.81 160.69 446.68"/><polygon class="cls-74" points="162.75 449.81 160.66 453.73 164.81 452.94 162.75 449.81"/><polygon class="cls-74" points="164.81 452.94 162.71 456.86 166.87 456.07 164.81 452.94"/><polygon class="cls-74" points="166.87 456.07 164.77 459.99 168.93 459.19 166.87 456.07"/><polygon class="cls-74" points="168.93 459.19 166.83 463.12 170.99 462.32 168.93 459.19"/><polygon class="cls-74" points="170.99 462.32 168.89 466.25 173.05 465.45 170.99 462.32"/><polygon class="cls-74" points="173.05 465.45 170.95 469.37 175.11 468.58 173.05 465.45"/><polygon class="cls-74" points="175.11 468.58 173.01 472.5 177.17 471.71 175.11 468.58"/><polygon class="cls-74" points="177.17 471.71 175.07 475.63 179.23 474.84 177.17 471.71"/><polygon class="cls-74" points="179.23 474.84 177.13 478.76 181.29 477.96 179.23 474.84"/><polygon class="cls-74" points="181.29 477.96 179.19 481.89 183.35 481.09 181.29 477.96"/><polygon class="cls-74" points="183.35 481.09 181.25 485.01 185.41 484.22 183.35 481.09"/><polygon class="cls-74" points="185.41 484.22 183.31 488.14 187.47 487.35 185.41 484.22"/><polygon class="cls-74" points="187.47 487.35 185.37 491.27 189.52 490.48 187.47 487.35"/><polygon class="cls-74" points="189.52 490.48 187.43 494.4 191.58 493.61 189.52 490.48"/><polygon class="cls-74" points="191.58 493.61 189.49 497.53 193.64 496.73 191.58 493.61"/><polygon class="cls-74" points="193.64 496.73 191.54 500.66 195.7 499.86 193.64 496.73"/><circle class="cls-75" cx="217.44" cy="453.12" r="2.4" transform="translate(-247.55 262.37) rotate(-42.06)"/><circle class="cls-75" cx="209.84" cy="485.69" r="2.59" transform="translate(-271.32 265.67) rotate(-42.06)"/><path class="cls-76" d="M309.84,516.93l0,0-55.66-61.68a34.35,34.35,0,0,0-31.91-10.81,24.78,24.78,0,0,0-2.56.61l14-12.65a1.85,1.85,0,0,1,2.6.13L310,514.17A2,2,0,0,1,309.84,516.93Z"/><rect class="cls-77" x="201.59" y="562.37" width="306.65" height="36.31"/><path class="cls-78" d="M300.63,468.08H513.58A13.39,13.39,0,0,1,527,481.48v75.85a13.39,13.39,0,0,1-13.39,13.39H300.63a0,0,0,0,1,0,0V468.08a0,0,0,0,1,0,0Z"/><path class="cls-79" d="M527,515.57v7.67H309.66a16.8,16.8,0,0,1,4.76-2.25c5.27-1.59,2.35-3.41,7.26-5.43Z"/><polygon class="cls-80" points="249.93 468.08 121.45 397.16 105.24 424.33 225.38 517.3 249.93 468.08"/><path class="cls-81" d="M28.26,592.43c7.88-7.13,15.33-3.73,15.33-3.73s14.89-7.91,22.35-3.17c0,0,19.43-3.58,23.89,10.27,0,0,6.73,0,8.82,5.2,0,0,11.57,5.22,10.56,14.39,0,0,5.29-1.46,6.26,5.34,0,0,6.36,3.37,3.52,14.21s-31.9,18.93-31.9,18.93-49-15.26-49.47-19.81-7-21.94-7-21.94Z"/><path class="cls-77" d="M0,580.53,8.85,649a14.31,14.31,0,0,0,11.26,12.17l61.94,13a14.31,14.31,0,0,0,8.45-.8l13.43-5.61,18.95-34-25.38,6.45L38.81,612.64l-12.5-23.95-6.51-26.32Z"/><polygon class="cls-82" points="86.39 412.64 0 580.53 26.32 588.69 131.62 422.97 86.39 412.64"/><polyline class="cls-83" points="20.45 586.87 120.24 420.37 217.55 493.92"/><path class="cls-71" d="M237.92,468.69c-26.26,20.78-53.52,16.91-53.52,16.91l29.39,22.74Z"/><path class="cls-71" d="M126.15,430.27c-22,23-49.76,1.81-49.76,1.81l12-23.5Z"/><circle class="cls-77" cx="110.18" cy="412.64" r="31.67"/><circle class="cls-84" cx="110.18" cy="412.64" r="16.89"/><path class="cls-85" d="M173.84,531.71v34.13a4.88,4.88,0,0,0,4.88,4.88H326V452.43a9.89,9.89,0,0,0-9.89-9.89H268.47a25.68,25.68,0,0,0-22.31,13c-10.6,18.59-33.34,52.14-66,66.45A10.66,10.66,0,0,0,173.84,531.71Z"/><path class="cls-77" d="M504.08,588.69H207.23a51.49,51.49,0,1,0,0,103H504.08a51.49,51.49,0,0,0,0-103Zm0,83.51H207.23a32,32,0,1,1,0-64H504.08a32,32,0,0,1,0,64Z"/><path class="cls-86" d="M555.57,640.19c0,.63,0,1.26,0,1.88a51.49,51.49,0,0,0-51.45-49.62H207.23a51.49,51.49,0,0,0-51.46,49.62c0-.62,0-1.25,0-1.88a51.5,51.5,0,0,1,51.5-51.5H504.08A51.49,51.49,0,0,1,555.57,640.19Z"/><path class="cls-87" d="M536.09,640.19a32,32,0,0,1-32,32H207.23a32,32,0,1,1,0-64H504.08A32.05,32.05,0,0,1,536.09,640.19Z"/><rect class="cls-87" x="453.89" y="487.89" width="36" height="12.79"/><circle class="cls-77" cx="213.03" cy="640.19" r="22.94"/><circle class="cls-88" cx="213.03" cy="640.19" r="13.45"/><circle class="cls-77" cx="494.83" cy="640.19" r="22.94"/><circle class="cls-88" cx="494.83" cy="640.19" r="13.45"/><path class="cls-84" d="M258.53,463.28,237.05,507a2.35,2.35,0,0,1-2.11,1.31H202.54c18.72-14.74,32.64-34.45,41.05-48.44h12.84A2.35,2.35,0,0,1,258.53,463.28Z"/><path class="cls-84" d="M270.6,459.89h35.64a1.13,1.13,0,0,1,1.13,1.13v46.19a1.13,1.13,0,0,1-1.13,1.13H254.68a1.13,1.13,0,0,1-1.07-1.49l15.92-46.19A1.13,1.13,0,0,1,270.6,459.89Z"/><path class="cls-89" d="M274.17,463.89h27.67A1.13,1.13,0,0,1,303,465v35.73a1.13,1.13,0,0,1-1.13,1.13H263.14a1.13,1.13,0,0,1-1.08-1.46l11-35.73A1.13,1.13,0,0,1,274.17,463.89Z"/><path class="cls-90" d="M277.55,468.08h17.83a3,3,0,0,1,3,3v23.54a3,3,0,0,1-3,3h-25.1a3,3,0,0,1-2.89-3.92l7.27-23.54A3,3,0,0,1,277.55,468.08Z"/><path class="cls-89" d="M249,469.41l-14.27,29.1a3.84,3.84,0,0,1-3.45,2.15H211.42c12.71-12,22.71-25.67,29.7-36.78h4.43A3.84,3.84,0,0,1,249,469.41Z"/><path class="cls-91" d="M244,471.1,233.27,493a1.67,1.67,0,0,1-1.5.94H217.55a130.3,130.3,0,0,0,20.38-25.23h4.58A1.67,1.67,0,0,1,244,471.1Z"/><path class="cls-79" d="M326,452.43v5.42a9.9,9.9,0,0,0-9.89-9.89H268.47a25.68,25.68,0,0,0-22.31,13c-10.6,18.59-33.34,52.14-66,66.45a10.66,10.66,0,0,0-6.38,9.76v-5.42a10.66,10.66,0,0,1,6.38-9.76c32.61-14.3,55.35-47.86,66-66.45a25.67,25.67,0,0,1,22.31-13h47.67A9.9,9.9,0,0,1,326,452.43Z"/><path class="cls-92" d="M266.47,457.6l-24.83,59.14a3,3,0,0,0-.24,1.17v41.45a3,3,0,0,0,3,3h70.75a3,3,0,0,0,3-3V458.77a3,3,0,0,0-3-3H269.26A3,3,0,0,0,266.47,457.6Z"/><path class="cls-79" d="M326,521.95v7.67H176.94a10.5,10.5,0,0,1,3.27-2.25,95.24,95.24,0,0,0,10.48-5.43Z"/><rect class="cls-93" x="181.64" y="541.45" width="16.91" height="4.17" rx="1.5" ry="1.5"/><rect class="cls-71" x="326.03" y="468.08" width="8.04" height="102.64"/><path class="cls-94" d="M202.83,691.61c7,.07,13.64-7.51,17.82-3.72,0,0,13.75-6.94,18.4-1.57,0,0,8.07-8.7,13.22-7a10.14,10.14,0,0,1,6.49,6.05s10.07-1.25,11.86,2.55c0,0,5.95.79,6.44,3.79h0l-74.23-.07"/><path class="cls-95" d="M162.66,683.15c-.72-4.73-13-10-13-10-1.28-7-15-8.67-15-8.67-2.22-7.39-14.25-4.39-14.25-4.39a5.31,5.31,0,0,0-3.42-1.63V633.79l-2.24-1-12.36,3.43h0c1.25,2,2.54,22.3,2.64,26.63-1.41.93-2.3,1.64-2.3,1.64-4.05-3.62-16.09,12.19-24,14.8s-21.34,8.6-21.34,8.6l119.2-1.11C174.84,681.45,162.66,683.15,162.66,683.15Zm-56.57-45.2,8.91-2.21v22.77a22.6,22.6,0,0,0-8,3.11Z"/><path class="cls-96" d="M898.2,688.55l-190-1.44c4.37-12.75,14.93-28,21.23-35.91L737.36,663l-2.79-17.06a70,70,0,0,1,30.8-15.3l4,14.52L768.76,630a74.16,74.16,0,0,1,13.87-1l.8,15.74,7-15.09,1,.16a52.32,52.32,0,0,1,25.44,11.85l-2.41,13.2,7.82-7.63c5.34,6.49,9.36,15,10.88,25.95a34.49,34.49,0,0,1,9.84-12.75l3.48,8.41-1-10.13a24.73,24.73,0,0,1,11.4-3.68l1.47,10.92L860.69,655a32.38,32.38,0,0,1,6.93,1.27,43,43,0,0,1,7.15,2.79l-1,8.3,2.43-7.57a42,42,0,0,1,9.62,7.25l-4.86,12.36,7.44-9.55A49.63,49.63,0,0,1,898.2,688.55Z"/><rect class="cls-97" x="532.38" y="621.57" width="294.5" height="71.58"/><polygon class="cls-97" points="546.7 613.49 546.7 624.1 689.9 624.1 689.9 584.01 560.72 584.01 546.7 613.49"/><rect class="cls-98" x="563.22" y="621.57" width="71.34" height="32.19"/><rect class="cls-99" x="544.61" y="584.01" width="71.34" height="32.19"/><rect class="cls-100" x="622" y="584.01" width="71.34" height="32.19"/><rect class="cls-101" x="524.14" y="621.57" width="32.19" height="32.19" transform="translate(1080.46 1275.34) rotate(180)"/><rect class="cls-102" x="797.97" y="621.57" width="35.67" height="32.19" transform="translate(1631.62 1275.34) rotate(180)"/><rect class="cls-103" x="719.72" y="621.57" width="71.34" height="32.19"/><rect class="cls-104" x="642.07" y="621.57" width="71.34" height="32.19"/><rect class="cls-105" x="605.8" y="660.96" width="71.34" height="32.19"/><rect class="cls-106" x="762.31" y="660.96" width="71.34" height="32.19"/><rect class="cls-107" x="526.2" y="660.96" width="71.34" height="32.19"/><rect class="cls-108" x="684.66" y="660.96" width="71.34" height="32.19"/><rect class="cls-109" x="619.03" y="475.77" width="254.66" height="212.41"/><path class="cls-3" d="M850.22,679.74H636.61V484.22H850.22ZM638,678.37H848.85V485.59H638Z"/><path class="cls-110" d="M743.09,499.71l-60.57,56.12V659.75H804.31V555.82Zm-56.41,57.93,56.42-52.27,35.42,32.46,21.63,19.82V565H686.68Zm0,11.51h54.69v44.74H686.68Zm113.47,90.94H686.68v-42H800.15Zm0-46.2H745.47V569.15h54.69Z"/><path class="cls-3" d="M785.11,660.77H771V636.47H715.8v24.31H701.73V622.31h83.38ZM772.4,659.4h11.35V623.68H703.1V659.4h11.34V635.1h58Z"/><path class="cls-3" d="M735.56,614.58H717.72V578.06h17.84Zm-16.47-1.37h15.1V579.43h-15.1Z"/><path class="cls-3" d="M753.6,565.65H733.22V540.12H753.6Zm-19-1.37h17.64V541.49H734.59Z"/><path class="cls-3" d="M812.69,664.94H674.14V659.4H812.69Zm-137.18-1.37H811.32v-2.8H675.51Z"/><rect class="cls-3" x="652.8" y="499.35" width="51.92" height="2.74"/><rect class="cls-3" x="652.8" y="506.62" width="31.32" height="2.74"/><rect class="cls-111" x="619.03" y="475.77" width="14.13" height="212.41"/><rect class="cls-111" x="855.06" y="475.77" width="14.13" height="212.41"/><rect class="cls-109" x="596.49" y="469.32" width="25.51" height="222.64"/><rect class="cls-112" x="600.6" y="469.32" width="8.22" height="222.64"/><rect class="cls-109" x="865.79" y="469.32" width="25.54" height="222.64"/><rect class="cls-112" x="874.45" y="469.32" width="8.22" height="222.64"/><path class="cls-113" d="M880.26,694.79l-130.4-.74c3-6.54,10.25-14.36,14.57-18.4l5.43,6.05L767.95,673a56,56,0,0,1,21.14-7.84l2.75,7.44-.43-7.77a67.87,67.87,0,0,1,9.52-.54l.55,8.06,4.78-7.73.66.08a42.33,42.33,0,0,1,17.46,6.07l-1.65,6.77,5.37-3.91a23.39,23.39,0,0,1,7.47,13.3,19,19,0,0,1,6.75-6.54l2.39,4.31-.69-5.19a21.17,21.17,0,0,1,7.83-1.88l1,5.6,1.67-5.59a29.11,29.11,0,0,1,4.75.65,36.07,36.07,0,0,1,4.91,1.43l-.71,4.25,1.67-3.88a29.6,29.6,0,0,1,6.6,3.72l-3.34,6.33,5.11-4.89A23.6,23.6,0,0,1,880.26,694.79Z"/><path class="cls-114" d="M765.35,457l4.8,12.75a133.5,133.5,0,0,0,9.79,20.54l3.39,5.78,6.92-1.63-6.71-16-13.65-23.86a12.81,12.81,0,0,0,1.67-5.22c.26-2.27,4-4.93,3-6.8s-4.76,1.76-4.76,1.76-4.55-4.8-6.65-4c-1.29.5-1.86,1.16-1.28,2.49,0,0-6.73,4.55-4.82,7.75S760.36,454.24,765.35,457Z"/><path class="cls-114" d="M782.46,495.09,766,458.83l4.62-2.79,20.3,33.83,3.56,2-2.89,9.87-7.17-4.24A5.88,5.88,0,0,1,782.46,495.09Z"/><polygon class="cls-115" points="816.33 488.47 794.03 490.98 789.78 502.63 817.29 513.79 816.33 488.47"/><path class="cls-116" d="M791.08,626.34l17,1.75-.36-4.1,17.41-48.18,3.93-10.88.49-18.66,0-1.82-20.26,2.48a5.49,5.49,0,0,0-1,.26,7.46,7.46,0,0,0-4.72,5.8l-12.48,70.83A8.64,8.64,0,0,0,791.08,626.34Z"/><path class="cls-117" d="M818.83,545.87l5.82,25.43.49,4.52,5.95,54.65,15,1.54,1.46-81.71c0-1.36.24-3.35-1.12-3.35l-16.86-.66Z"/><polygon class="cls-118" points="806.29 679.77 806.19 685.7 811.8 686.13 812.96 678.19 806.29 679.77"/><polygon class="cls-118" points="844.93 679.77 845.03 685.7 839.42 686.13 838.26 678.19 844.93 679.77"/><path class="cls-119" d="M812.56,684h-6.43s-.39,2.73-5.26,3.51-10.46,1.17-10.46,8.57h17l.78-1.95.78,1.95h3.64Z"/><path class="cls-119" d="M845.58,684h-6.43s-.39,2.73-5.26,3.51-10.46,1.17-10.46,8.57h17l.78-1.95.78,1.95h3.64Z"/><polygon class="cls-117" points="846.08 632.01 845.14 681.04 837.2 681.04 831.09 630.46 834.08 624.98 846.08 632.01"/><polygon class="cls-116" points="808.09 628.1 813.7 681.04 805.66 681.04 791.08 626.35 800.08 622.73 808.09 628.1"/><path class="cls-115" d="M845.23,541.46a2.05,2.05,0,0,1-2,2H808a1,1,0,0,1-1-1L806,489.62l7.1-2v-.17s8.63-3.09,14.12-2.06l8-1.33L844,506.64v17.13Z"/><path class="cls-120" d="M815.15,481v7a3.63,3.63,0,0,0,3.63,3.63h0A3.63,3.63,0,0,0,822.4,488V475.18Z"/><path class="cls-114" d="M805.5,470.65c.48,3.95,2.29,13,8.63,13.37,8,.42,10.74-7.58,11.16-10.85.3-2.31,3-11.22-2.39-11.38s-17,1.07-17.3,3.38A20.89,20.89,0,0,0,805.5,470.65Z"/><path class="cls-121" d="M821.19,468.33l1.68,4.74s.11-3.58,1.37-5.48S821.19,468.33,821.19,468.33Z"/><path class="cls-121" d="M823,468.12c-5.91,5.42-15.75,2.64-18.22-2.54,0,0,4.72-9.91,10.38-8.68s-1.51-.85-1.51-.85,4.93-.74,5.91.74c0,0,6.07.66,7.55,5.59s.08,9.26-2.63,13.94Z"/><path class="cls-118" d="M823.07,469.94c.44-.77,1.53-2.63,2.63-1.32s-.66,6.25-2,6.14Z"/><rect class="cls-122" x="807.82" y="543.54" width="36.26" height="3.42"/><path class="cls-115" d="M834.08,506.74l10.89,7,8.1-3.74-10.82-22.6a5.94,5.94,0,0,0-4.78-3.08l-2.93-.21Z"/><path class="cls-118" d="M769.52,458.93"/><path class="cls-77" d="M824.37,470.18a.88.88,0,0,1,1.06-.66l4.4,1.07.38.68-8,10.77-.38-.68Z"/><polygon class="cls-77" points="824.94 469.99 830.21 471.27 825.31 482.04 822.25 482.04 824.94 469.99"/><path class="cls-123" d="M815.9,453.36h2a10.46,10.46,0,0,1,10.46,10.46v0a0,0,0,0,1,0,0H805.44a0,0,0,0,1,0,0v0A10.46,10.46,0,0,1,815.9,453.36Z"/><path class="cls-124" d="M824.56,463.81H805.44a10.39,10.39,0,0,1,2.18-6.39C809.64,460.21,819.72,462.73,824.56,463.81Z"/><path class="cls-123" d="M828.36,466.11H803.08a1.15,1.15,0,0,1-1.15-1.15h0a1.15,1.15,0,0,1,1.15-1.15h25.28Z"/><path class="cls-114" d="M850.91,505.94l-21.82-26,1.61-5.72a.5.5,0,0,0-.17-.53l-2.33-1.82a.5.5,0,0,0-.76.19l-1.88,4.3a9.06,9.06,0,0,0,.45,8.14l17.21,30a3.86,3.86,0,0,0,2.61,1.87l2.4.47a3.86,3.86,0,0,0,3.95-1.64h0a3.86,3.86,0,0,0,.57-3l-1-4.58A3.86,3.86,0,0,0,850.91,505.94Z"/><path class="cls-125" d="M573.25,696.08c-8.37-11.46,7.22-17.2,13.76-11s15.82-14.22,26.92-9.73c11.93,4.82,7.47,15,7.47,15s10.55-2.18,12.84,5.73Z"/><rect class="cls-126" x="698.12" y="675.93" width="43.05" height="9.7"/><path class="cls-127" d="M706.35,649.12v36.71a5,5,0,0,1-5,5H664.59c-23.38,0-42.64-18.82-42.64-42.2a42.2,42.2,0,0,1,42.2-42.2C687.52,606.48,706.35,625.74,706.35,649.12Z"/><circle class="cls-128" cx="664.15" cy="650.17" r="28.76"/><circle class="cls-97" cx="664.15" cy="647.65" r="28.76"/><circle class="cls-129" cx="664.15" cy="647.65" r="21.39"/><rect class="cls-87" x="741.17" y="675.93" width="2.69" height="14.49"/><polygon class="cls-118" points="262.83 672.37 262.62 678.99 256.34 679.15 255.47 670.23 262.83 672.37"/><path class="cls-130" d="M256.14,676.76l7.18.35s.29,3.07,5.68,4.2,11.61,1.87,11.21,10.14l-18.92-.92-.76-2.22-1,2.13-4.07-.2Z"/><polygon class="cls-131" points="255.66 593.01 271.44 595.84 273.54 605.68 262.88 674.13 255.53 673.61 255.07 601.48 255.66 593.01"/><polygon class="cls-118" points="197 665.82 193.68 671.55 188.07 668.71 191.54 660.45 197 665.82"/><path class="cls-130" d="M189,666.51l6.15,3.72s-1.2,2.83,3,6.39,9.33,7.17,5,14.24L187,681.06l.38-2.31-1.87,1.41L182,678.06Z"/><polygon class="cls-132" points="251.71 557.7 225.33 557.7 227.07 550.32 251.71 550.32 251.71 557.7"/><path class="cls-123" d="M228.4,592.59l6.36,5.06a11.75,11.75,0,0,1,4,12.5h0a11.75,11.75,0,0,1-1.92,3.8L196.21,667.4,190,663.45l33.86-63.69Z"/><polygon class="cls-131" points="251.71 554.51 272.87 598.28 273.54 605.68 255.07 605.68 236.95 578.37 251.71 554.51"/><path class="cls-123" d="M225.33,557.7s.32,14.08,0,23,2,22.75,2,22.75l6.91,12.85,4.44-3.67a12,12,0,0,0,4.14-7l8.91-47.89Z"/><polygon class="cls-120" points="252.68 495.16 243.92 491.92 250.26 474.09 256.75 484.18 252.68 495.16"/><path class="cls-114" d="M262.86,470.65s-.8,2.1.48,5.51a15,15,0,0,0,1.74,3.11.91.91,0,0,1-.43,1.38l-2.07.78s-.43,8.36-2.93,8.73a5.5,5.5,0,0,1-1.63,0c-2.88-.45-5.23-.81-7.51-3.43-1.68-1.93-3.8-7-3.8-7s1.76-11.91,8.53-13.3S262.86,470.65,262.86,470.65Z"/><path class="cls-133" d="M245.42,474.95l1.91,3.46,2-6.83s3.43-15.11,2.29-11.68c0,0-7.4,1.38-10,8.1s-1.05,11.37,6.12,17.78L248,484Z"/><path class="cls-114" d="M247.45,477.29c-1.07-2.05-3.19-2-3.19,0s1,5.3,2.21,5.39l.47,0a.67.67,0,0,0,.72-.7Z"/><path class="cls-134" d="M243.4,489.59l11,4.75a2.34,2.34,0,0,1,1.41,2h0S261.14,512.25,261,519c-.12,6.22-6.36,31.31-7.42,35.56a.7.7,0,0,1-.78.52l-26-3.93a.91.91,0,0,1-.77-1c.41-4.73,2.41-27.91,3.46-36.65C230.67,503.81,236.31,487.21,243.4,489.59Z"/><path class="cls-135" d="M239.66,536.64l-.54,3.55a10.07,10.07,0,0,0,5,10.27l30.43,17.17,1.37-5.89L251,540.52l1.32-10.32Z"/><path class="cls-135" d="M275.93,561.74l7.24.27a1.14,1.14,0,0,1,1.1,1.14h0a1.14,1.14,0,0,1-1.14,1.14H280.2l.17,6.71a1.89,1.89,0,0,1-1.89,1.94h-3.83a1.89,1.89,0,0,1-1.84-1.48l-1.6-7.16Z"/><path class="cls-123" d="M249.33,493.92c9.17,3.39,5.25,19.27,10.64,17.34,0,0,2.92,5.87,1.05,15.08S253.74,559,253.74,559l-28.43,2.6,0-22.27,5.08-31s5.48-.21,8.1-6.47S246,492.68,249.33,493.92Z"/><path class="cls-136" d="M257.21,539.53c-1.57,6.85-3.13,13.13-3.62,15.07a.7.7,0,0,1-.78.52l-2.56-.39a10.14,10.14,0,0,1-2.28-6.09c-.35-4.84-2.06-18-1.88-19.17s2.25-13.3,2.25-13.3l1.34-2.55C252.23,539.27,252.76,544.67,257.21,539.53Z"/><path class="cls-136" d="M245.65,554l-18.85-2.85a.91.91,0,0,1-.77-1c.11-1.26.33-3.85.62-7.13l.09-.08c3.51,16.84,12.76-36.42,12.76-36.42l3.26,10.9Z"/><polygon class="cls-133" points="269.16 567.63 258.05 567.63 258.05 564.58 271.05 564.58 269.16 567.63"/><path class="cls-114" d="M236.94,536.94l-.54,3.55a10.07,10.07,0,0,0,5,10.27l30.43,17.17,1.37-5.89-24.9-21.23,1.32-10.32Z"/><polygon class="cls-137" points="236.94 536.94 248.92 536.83 249.44 534.71 237.21 532.79 236.94 536.94"/><path class="cls-134" d="M246.39,498.18c10.48,1.85,4.88,23.1,3,37.05l-13.56-2.05S237.07,496.53,246.39,498.18Z"/><path class="cls-114" d="M273.21,562l7.24.27a1.14,1.14,0,0,1,1.1,1.14h0a1.14,1.14,0,0,1-1.14,1.14h-2.93l.17,6.71a1.89,1.89,0,0,1-1.89,1.94h-3.83a1.89,1.89,0,0,1-1.84-1.48l-1.6-7.16Z"/><path class="cls-123" d="M251,459.13h2a10.46,10.46,0,0,1,10.46,10.46H240.52A10.46,10.46,0,0,1,251,459.13Z"/><path class="cls-124" d="M244.32,469.59h19.12a10.39,10.39,0,0,0-2.18-6.39C259.24,466,249.16,468.51,244.32,469.59Z"/><path class="cls-123" d="M240.52,471.88H265.8a1.15,1.15,0,0,0,1.15-1.15h0a1.15,1.15,0,0,0-1.15-1.15H240.52Z"/><line class="cls-138" x1="396.08" y1="655.96" x2="380.65" y2="671.18"/><path class="cls-139" d="M420.76,601.62c.21-8.84-9.7-9-9.7-9s-6.87-10.3-16.64-8.59c0,0-16.67-11.64-27.19-3.47,0,0-14.73-.61-18.26,6.47,0,0-8.43-1.2-10.81,4.39,0,0-10,1.4-10.19,10.24s40.27,14.9,40.27,14.9l40-2.16Z"/><path class="cls-109" d="M412.84,605.68H318L359.91,657H410.4a13.9,13.9,0,0,0,13.9-13.9V605.68Z"/><rect class="cls-140" x="317.08" y="601.62" width="110.83" height="5.98" transform="translate(745 1209.22) rotate(180)"/><path class="cls-138" d="M277.48,567.63h4.37a6.21,6.21,0,0,1,4.77,2.23l72.46,86.75"/><line class="cls-138" x1="359.07" y1="656.61" x2="369.76" y2="669.37"/><circle class="cls-87" cx="371.55" cy="677.92" r="12.88" transform="translate(-323.55 1016.22) rotate(-87.23)"/><circle class="cls-141" cx="371.55" cy="677.92" r="6.73" transform="translate(-323.55 1016.22) rotate(-87.23)"/></g></g></svg>