<svg xmlns="http://www.w3.org/2000/svg" xmlns:xlink="http://www.w3.org/1999/xlink" viewBox="0 0 1920 1136"><defs><style>.cls-1{isolation:isolate;}.cls-2{fill:#fff;}.cls-3,.cls-4,.cls-5{opacity:0.5;mix-blend-mode:multiply;}.cls-3{fill:url(#linear-gradient);}.cls-4{fill:url(#linear-gradient-2);}.cls-5{fill:url(#linear-gradient-3);}</style><linearGradient id="linear-gradient" x1="1865.69" y1="462.5" x2="1465.46" y2="1260.85" gradientUnits="userSpaceOnUse"><stop offset="0.01" stop-color="#f7ca78"/><stop offset="0.2" stop-color="#f5c376"/><stop offset="0.49" stop-color="#f0b072"/><stop offset="0.83" stop-color="#e7916a"/><stop offset="0.99" stop-color="#e27f66"/></linearGradient><linearGradient id="linear-gradient-2" x1="1881.42" y1="686.41" x2="1510.83" y2="1186.18" xlink:href="#linear-gradient"/><linearGradient id="linear-gradient-3" x1="1846.67" y1="610.65" x2="1622.2" y2="1021.47" xlink:href="#linear-gradient"/></defs><title>Asset 2</title><g class="cls-1"><g id="Layer_2" data-name="Layer 2"><g id="BG"><rect class="cls-2" width="1920" height="1136"/><path class="cls-3" d="M1146.35,1136H1920V516.92s0,164-165.8,164c-179.61,0-221.88,185.49-309.83,273.28-81.66,81.51-298,60.76-298,181.75Z"/><path class="cls-4" d="M1195.27,1136H1920V710.59H1764.68c-168.25,0-207.85,173.42-290.24,255.49-76.49,76.2-279.18,56.81-279.18,169.92Z"/><path class="cls-5" d="M1206.3,1136H1920V890.69s-30.85-82.43-153-82.43c-167.07,0-204.69,133.6-285.82,196.83-75.33,58.71-274.93,43.76-274.93,130.91Z"/><path class="cls-2" d="M1920,1136V967.47s-29.32-99-145.38-99c-52.2,0-95.66,21.47-133.8,56.57-45.22,41.62-77.28,105.37-112,156.64-6,8.8-12.2,17.87-21.2,23.32-16.52,10-37.67,5.32-55.56-1.81-22.88-9.12-46.28-20.1-71.42-14.28-9.91,2.3-19.62,6.78-26.52,14.41-7.53,8.32-10.14,20.3-9,32.65Z"/></g></g></g></svg>